
<svg xmlns="http://www.w3.org/2000/svg" version="1.1" xmlns:xlink="http://www.w3.org/1999/xlink" preserveAspectRatio="none" x="0px" y="0px" width="130px" height="20px" viewBox="0 0 130 20">
<defs>
<linearGradient id="Gradient_1" gradientUnits="userSpaceOnUse" x1="116.55" y1="1.0249999999999986" x2="116.55" y2="18.875" spreadMethod="pad">
<stop  offset="0%" stop-color="#EEEEEE"/>

<stop  offset="7.8431372549019605%" stop-color="#FCFCFC"/>

<stop  offset="100%" stop-color="#FFFFFF"/>
</linearGradient>

<g id="Layer0_0_FILL">
<path fill="#FEE4AB" stroke="none" d="
M 92.5 10.5
L 96.3 10.5 96.3 9.55 92.5 9.55 92.5 7.2 96.75 7.2 96.75 6.25 91.45 6.25 91.45 13.9 96.9 13.9 96.9 12.95 92.5 12.95 92.5 10.5
M 85.55 7.85
L 86 6.9
Q 85.5 6.55 84.85 6.35 84.15 6.15 83.5 6.15 82.65 6.15 82.05 6.4 81.45 6.65 81.1 7.15 80.75 7.6 80.75 8.2 80.75 8.55 80.85 8.85 80.95 9.15 81.1 9.35 81.45 9.75 81.9 10 82.4 10.2 83.15 10.45
L 84.15 10.75
Q 84.5 10.95 84.75 11.2 85 11.45 85 11.85 85 12.35 84.55 12.65 84.35 12.8 84.05 12.9 83.75 12.95 83.35 12.95 82.7 12.95 82 12.7 81.35 12.4 80.8 11.85
L 80.3 12.75
Q 80.6 13.05 80.95 13.25 81.3 13.45 81.7 13.65 82.5 13.95 83.35 13.95 83.75 13.95 84.1 13.9 84.5 13.85 84.8 13.7 85.45 13.45 85.8 12.95 86 12.7 86.05 12.4 86.15 12.1 86.15 11.8 86.15 11.45 86.05 11.15 86 10.85 85.8 10.65 85.5 10.2 85 10 84.5 9.8 83.75 9.55
L 82.75 9.2
Q 82.4 9.05 82.2 8.8 81.95 8.55 81.95 8.15 81.95 7.9 82.05 7.75 82.15 7.55 82.35 7.4 82.55 7.3 82.8 7.25 83.05 7.15 83.4 7.15 83.9 7.15 84.45 7.35 85.05 7.5 85.55 7.85
M 75.3 6.25
L 74.25 6.25 74.25 13.9 75.3 13.9 75.3 6.25
M 65.75 6.25
L 62.75 6.25 62.75 13.9 63.8 13.9 63.8 11.5 66.15 11.5 67.7 13.9 68.9 13.9 67.1 11.3
Q 67.9 11 68.35 10.4 68.8 9.75 68.8 8.85 68.8 7.6 68 6.9 67.2 6.25 65.75 6.25
M 63.8 7.2
L 65.75 7.2
Q 66.25 7.2 66.6 7.3 67 7.4 67.25 7.6 67.75 8.05 67.75 8.85 67.75 9.7 67.25 10.15 67 10.35 66.6 10.45 66.25 10.55 65.75 10.55
L 63.8 10.55 63.8 7.2
M 52.05 12.05
L 56.05 12.05 56.9 13.9 58 13.9 54.65 6.25 53.55 6.25 50.15 13.9 51.25 13.9 52.05 12.05
M 52.45 11.1
L 54.05 7.35 55.65 11.1 52.45 11.1
M 45.75 7.2
L 45.75 6.25 40.45 6.25 40.45 13.9 45.9 13.9 45.9 12.95 41.5 12.95 41.5 10.5 45.3 10.5 45.3 9.55 41.5 9.55 41.5 7.2 45.75 7.2
M 35.6 7.2
L 35.6 6.25 29.6 6.25 29.6 7.2 32.05 7.2 32.05 13.9 33.1 13.9 33.1 7.2 35.6 7.2
M 24.95 8.1
Q 24.4 7.2 23.45 6.7 22.55 6.2 21.45 6.2 20.35 6.2 19.4 6.7 18.95 6.95 18.6 7.3 18.2 7.65 17.95 8.1 17.4 9 17.4 10.05 17.4 10.6 17.55 11.1 17.7 11.6 17.95 12.05 18.2 12.5 18.6 12.85 18.95 13.2 19.4 13.45 20.35 13.95 21.45 13.95 22.55 13.95 23.45 13.45 23.95 13.2 24.3 12.85 24.65 12.5 24.95 12.05 25.2 11.6 25.35 11.1 25.45 10.6 25.45 10.05 25.45 9.55 25.35 9.05 25.2 8.55 24.95 8.1
M 23.5 8
Q 23.8 8.25 24 8.6 24.4 9.25 24.4 10.05 24.4 10.85 24 11.55 23.8 11.9 23.5 12.15 23.25 12.45 22.9 12.6 22.6 12.85 22.2 12.9 21.85 13 21.45 13 21.05 13 20.7 12.9 20.3 12.85 19.95 12.6 19.3 12.25 18.9 11.55 18.45 10.85 18.45 10.05 18.45 9.25 18.9 8.6 19.3 7.9 19.95 7.5 20.65 7.1 21.45 7.1 21.85 7.1 22.2 7.2 22.6 7.3 22.9 7.5 23.25 7.7 23.5 8
M 11.25 6.25
L 11.25 12.2 6.85 6.25 5.8 6.25 5.8 13.9 6.85 13.9 6.85 7.95 11.2 13.9 12.3 13.9 12.3 6.25 11.25 6.25 Z"/>

<path fill="url(#Gradient_1)" stroke="none" d="
M 124.8 8.65
Q 125.6 5.45 125.6 4.6 125.6 3 124.45 2.05 123.3 1.05 121.65 1.05 120.05 1.05 118.5 1.8 117.1 2.4 115.7 3.55 115.45 1.05 113.05 1.05 111.6 1.05 109.95 1.8 108.65 2.4 107.25 3.45 107.45 3.6 107.75 3.8 107.95 4 108.05 4.2 108.2 4.5 108.2 4.9
L 108.05 6.05 105.2 18.95
Q 106 18.35 106.7 18.15 107.45 18 108.45 18
L 109.7 18
Q 112.35 18 113 15.2 113.05 14.85 113.55 13.05 113.8 11.75 114.05 10.6 114.25 9.4 114.7 8.45 115.4 7.15 116.55 7.15 117.05 7.15 117.4 7.5 117.85 7.85 117.85 8.3 117.85 8.8 116.9 12.55 116.6 14 116.6 14.9 116.6 16.55 117.7 17.45 118.9 18.35 120.55 18.35 122.55 18.35 125.05 17.1 127.9 15.65 127.9 14.05 127.9 13.25 127.15 13.25 126.95 13.25 126.3 13.45 125.6 13.7 125.3 13.7 124 13.7 124 12.45 124 11.8 124.8 8.65 Z"/>
</g>
</defs>

<g transform="matrix( 1, 0, 0, 1, 0,0) ">
<use xlink:href="#Layer0_0_FILL"/>
</g>
</svg>
